<svg viewBox="0 0 1200 1200" xmlns="http://www.w3.org/2000/svg"><defs><style>.cls-1{fill:#f2f2f2;}.cls-2{fill:#8cf1f4;}.cls-3{fill:#71db7d;}.cls-4{fill:#ffff0b;}.cls-5{fill:#2d2d2d;}.cls-6{fill:#8afff6;}.cls-7{fill:#ffe1d2;}.cls-8{fill:#192d1b;}.cls-9{fill:#161616;}.cls-10{fill:#bcbcbc;}.cls-11{fill:#ffd9c0;}.cls-12{fill:#565656;}.cls-13{fill:#dbb39e;}.cls-14{fill:#ff8a8a;}</style></defs><title>5 (4)</title><g id="图层_2"><g id="_5"><g id="_编组_"><path d="M1184.22,1152.56a15,15,0,0,0,14.28-10.4,15.19,15.19,0,0,0,.75-4.62h.75V1200H806.3v-5.63a5.62,5.62,0,0,0,5.63-5.64v-11.27h365.53v-26.29l2.14.68A15.13,15.13,0,0,0,1184.22,1152.56Z"></path><path d="M1188.84,1123.26l-11.38-3.68V22.54H22.54V1082.47l-10.22,3.31a15.05,15.05,0,0,0-10.4,14.31H0V0H1200V1137.54h-.75A15,15,0,0,0,1188.84,1123.26Z"></path><path d="M1199.25,1137.54a15.19,15.19,0,0,1-.75,4.62,15,15,0,0,1-14.28,10.4,15.13,15.13,0,0,1-4.62-.71l-2.14-.68v-13.45a5.54,5.54,0,0,0,0-7.43v-10.71l11.38,3.68A15,15,0,0,1,1199.25,1137.54Z"></path><path d="M1177.46,1130.29a5.54,5.54,0,0,1,0,7.43Z"></path><polygon points="1177.46 1151.17 1177.46 1177.46 811.93 1177.46 811.93 1139.64 1141.82 1139.64 1177.46 1151.17" class="cls-1"></polygon><path d="M1177.46,22.54v1097L828.65,1006.9a44.63,44.63,0,0,1-30.09-50.71l9.84-51.68a27.09,27.09,0,0,0,.64-3.83,24.49,24.49,0,0,0-.79-9.51c-4.13-14.31-18.37-27.9-83.83-26.89,47.25-37.9,71-80.64,79.25-97.81,11.53-24,16.3-48.72,24.94-93.49a701.62,701.62,0,0,0,10-193.59,191.69,191.69,0,0,0,23.4-50c19.19-64.12,5-143.41-36.92-206.92-31.18-47.22-73.36-77-115.69-81.81-25.69-3-52.47,3-79.66,17.76-38-19.64-121.13-52.28-212.25-21.78C265.36,187.5,236.7,364.79,233.92,384.85a314.88,314.88,0,0,0,5.67,115l2.78,11.91,12.21-.3c5.22-.15,10.48-.34,15.66-.64l14.09,26.37L257,574.61l41.66,126.58h35.75l45.79,165.08c-82.86-5.48-98.9,10.1-103.22,24.79a25.26,25.26,0,0,0-.15,13.67l.08.23L291,979a18.39,18.39,0,0,1-12.4,20.85l-47.89,15.47L92.4,1059.93l-69.86,22.54V22.54Zm-80.34,559.17a5.62,5.62,0,0,0-5.63-5.64h-48.38v-49.8a5.64,5.64,0,1,0-11.27,0v49.8H983.47a5.64,5.64,0,1,0,0,11.27h48.37v53.53a5.64,5.64,0,0,0,11.27,0V587.34h48.38A5.62,5.62,0,0,0,1097.12,581.71ZM207,153.55a5.62,5.62,0,0,0-5.63-5.63H167.25V112.8a5.63,5.63,0,1,0-11.26,0v35.12H121.92a5.63,5.63,0,0,0,0,11.26H156v37.87a5.63,5.63,0,0,0,11.26,0V159.18h34.07A5.62,5.62,0,0,0,207,153.55Zm0,653.26a5.62,5.62,0,0,0-5.63-5.63H167.25V766A5.63,5.63,0,1,0,156,766v35.16H121.92a5.64,5.64,0,0,0,0,11.27H156v37.86a5.63,5.63,0,1,0,11.26,0V812.45h34.07A5.62,5.62,0,0,0,207,806.81Z" class="cls-2"></path><path d="M1173.26,1128.37a5.53,5.53,0,0,1,4.2,1.92v7.43a5.53,5.53,0,0,1-4.2,1.92h-31.44l-34.89-11.27Z"></path><path d="M1173.26,1139.64a5.53,5.53,0,0,0,4.2-1.92v13.45l-35.64-11.53Z"></path><polygon points="1141.82 1139.64 811.93 1139.64 811.93 1128.37 1106.93 1128.37 1141.82 1139.64"></polygon><path d="M1106.93,1128.37h-295v-95.74a72.32,72.32,0,0,0,7.48,2.89Z" class="cls-3"></path><path d="M1091.49,576.07a5.64,5.64,0,0,1,0,11.27h-48.38V576.07Z" class="cls-4"></path><path d="M1043.11,587.34v53.53a5.64,5.64,0,0,1-11.27,0V587.34Z" class="cls-4"></path><rect height="11.27" width="11.27" y="576.07" x="1031.84" class="cls-4"></rect><path d="M1043.11,526.27v49.8h-11.27v-49.8a5.64,5.64,0,1,1,11.27,0Z" class="cls-4"></path><path d="M1031.84,576.07v11.27H983.47a5.64,5.64,0,1,1,0-11.27Z" class="cls-4"></path><path d="M825.42,460.57A15,15,0,0,1,838.19,474c.15,1.8.33,3.57.45,5.37-.27.49-.57.94-.87,1.39A15,15,0,0,1,817,485a13.9,13.9,0,0,1-2.77-2.37q5.29-8.34,10.77-16.53A5.62,5.62,0,0,0,825.42,460.57Z"></path><path d="M825,466.09q-5.46,8.18-10.77,16.53a12.43,12.43,0,0,1,7.66-22.12,16.36,16.36,0,0,1,3.57.07A5.62,5.62,0,0,1,825,466.09Z"></path><path d="M825.42,460.57a16.36,16.36,0,0,0-3.57-.07,14.76,14.76,0,0,0-9.84,5,12,12,0,0,1,.75-1.31l.79-1.24c.67-1.05,1.39-2.1,2.06-3.12a5.68,5.68,0,0,1,7.85-1.54A5.74,5.74,0,0,1,825.42,460.57Z"></path><path d="M813.55,462.94a162.73,162.73,0,0,0,19.72-42.18c16.41-55,3.38-126.32-33.24-181.76-26.26-39.78-60.51-64.72-94-68.51-20.58-2.37-42.74,3.19-65.77,16.45a.58.58,0,0,0-.11-.37,14.29,14.29,0,0,0,2.93-3.69,15,15,0,0,0-5.82-20.43c-2.26-1.28-4.77-2.63-7.51-4.06,27.19-14.72,54-20.73,79.66-17.76,42.33,4.77,84.51,34.59,115.69,81.81,42,63.51,56.11,142.8,36.92,206.92a191.69,191.69,0,0,1-23.4,50c-.12-1.8-.3-3.57-.45-5.37a15,15,0,0,0-12.77-13.45,5.74,5.74,0,0,0-2-2.29,5.68,5.68,0,0,0-7.85,1.54C814.94,460.84,814.22,461.89,813.55,462.94Z"></path><path d="M812.76,464.18a12,12,0,0,0-.75,1.31c-.27.27-.45.53-.68.79C811.78,465.57,812.27,464.86,812.76,464.18Z"></path><path d="M811.93,1177.46v11.27a5.64,5.64,0,1,1-11.27,0v-11.27Z"></path><rect height="37.82" width="11.27" y="1139.64" x="800.66"></rect><rect height="11.27" width="11.27" y="1128.37" x="800.66"></rect><path d="M811.93,1032.63v95.74H800.66v-102A71.26,71.26,0,0,0,811.93,1032.63Z"></path><path d="M811.93,1015.5v17.13a71.26,71.26,0,0,1-11.27-6.24V1015.5a5.64,5.64,0,0,1,11.27,0Z"></path><path d="M811.26,466.4c-.49.71-.94,1.42-1.39,2.17A15.38,15.38,0,0,1,811.26,466.4Z"></path><path d="M809.38,490.36c-.3-4.51-.68-9-1.09-13.52a15.29,15.29,0,0,1,1.5-8.15s.08-.08.08-.12c.45-.75.9-1.46,1.39-2.17,0,0,0-.08.07-.12.23-.26.41-.52.68-.79a14.87,14.87,0,0,0,2.18,17.13c-1.09,1.73-2.15,3.46-3.24,5.19C810.43,488.67,809.9,489.5,809.38,490.36Z"></path><path d="M809,900.68a27.09,27.09,0,0,1-.64,3.83l.45-2.44A10.27,10.27,0,0,0,809,900.68Z"></path><path d="M808.4,904.51l-9.84,51.68a44.63,44.63,0,0,0,30.09,50.71l348.81,112.68v10.71a5.53,5.53,0,0,0-4.2-1.92h-66.33l-287.52-92.85a72.32,72.32,0,0,1-7.48-2.89V1015.5a5.64,5.64,0,0,0-11.27,0v10.89A74.72,74.72,0,0,1,769,950.59l2-10.7c10.66-5.52,19.64-12.85,25.76-22.42.3-.45.64-1,1-1.51a14.89,14.89,0,0,0,10.29-10.33C808.21,905.26,808.33,904.88,808.4,904.51Z"></path><path d="M801.45,481.8a236.61,236.61,0,0,0-3.6-29.3,4.15,4.15,0,0,1-.15-.75,233.77,233.77,0,0,0-17.24-54.39c-31.33-68.66-87-104-119.11-119.45a4.36,4.36,0,0,0,0-1.61,402.6,402.6,0,0,0-9.61-52.1c-3.2-12.54-7.06-25-11.5-37.26,23-13.26,45.19-18.82,65.77-16.45,33.47,3.79,67.72,28.73,94,68.51,36.62,55.44,49.65,126.77,33.24,181.76a162.73,162.73,0,0,1-19.72,42.18l-.79,1.24c-.49.68-1,1.39-1.43,2.1,0,0,0,.08-.07.12a15.38,15.38,0,0,0-1.39,2.17s0,.08-.08.12C806.94,473,804.16,477.44,801.45,481.8Z" class="cls-5"></path><polygon points="800.66 1139.64 800.66 1177.46 664.7 1177.46 648.28 1139.64 800.66 1139.64" class="cls-3"></polygon><polygon points="800.66 1128.37 800.66 1139.64 648.28 1139.64 643.4 1128.37 800.66 1128.37"></polygon><path d="M800.66,1026.39v102H643.4l-30.16-69.52,43.61-103.79c32.9,2.26,81.58,1.84,114.22-15.17l-2,10.7A74.72,74.72,0,0,0,800.66,1026.39Z" class="cls-1"></path><path d="M789.55,916a15,15,0,0,1-9.28-7.62,7,7,0,0,0,.75-1.06,41,41,0,0,0,3.31-5.78,9.4,9.4,0,1,1,17.31,7.32,52.54,52.54,0,0,1-3.83,7.1,13.58,13.58,0,0,1-4.13.6A15.45,15.45,0,0,1,789.55,916Z"></path><path d="M787.18,457c-.79-4.7-1.73-9.39-2.85-14,3.49,1.65,7,3.42,10.55,5.29a5.78,5.78,0,0,1,2.82,3.5,4.15,4.15,0,0,0,.15.75,6.06,6.06,0,0,1-.64,3.38,5.66,5.66,0,0,1-7.63,2.33C788.79,457.79,788,457.38,787.18,457Z"></path><path d="M789.55,916a15.45,15.45,0,0,0,4.13.56,13.58,13.58,0,0,0,4.13-.6c-.34.53-.68,1.06-1,1.51-6.12,9.57-15.1,16.9-25.76,22.42l5-26.48a33,33,0,0,0,4.17-5A15,15,0,0,0,789.55,916Z"></path><path d="M790.6,501.25A231.14,231.14,0,0,0,787.18,457c.79.41,1.61.82,2.4,1.24a5.66,5.66,0,0,0,7.63-2.33,6.06,6.06,0,0,0,.64-3.38,236.61,236.61,0,0,1,3.6,29.3c2.71-4.36,5.49-8.76,8.34-13.11a15.29,15.29,0,0,0-1.5,8.15c.41,4.5.79,9,1.09,13.52-2.82,4.58-5.56,9.2-8.27,13.82l-10.85,18.59Z"></path><path d="M779.33,896.47A15,15,0,0,1,809,900.68a10.27,10.27,0,0,1-.19,1.39l-.45,2.44c-.07.37-.19.75-.3,1.12A14.89,14.89,0,0,1,797.81,916a52.54,52.54,0,0,0,3.83-7.1,9.4,9.4,0,1,0-17.31-7.32,41,41,0,0,1-3.31,5.78,7,7,0,0,1-.75,1.06,15,15,0,0,1-1.58-8.23l0,0Z"></path><path d="M778.69,900.15a15,15,0,0,0,1.58,8.23,33,33,0,0,1-4.17,5l2.55-13.3Z"></path><path d="M817,485a15,15,0,0,0,20.81-4.21c.3-.45.6-.9.87-1.39a701.62,701.62,0,0,1-10,193.59c-8.64,44.77-13.41,69.45-24.94,93.49-8.23,17.17-32,59.91-79.25,97.81-9.43.19-19.95.64-31.67,1.46a156.79,156.79,0,0,0,50.18-28.2,5.63,5.63,0,1,0-7.21-8.64,144.36,144.36,0,0,1-52,27.87c5.26-3.42,10.44-7.06,15.44-10.82,46.76-35.27,69.71-76.44,77.41-92.48,9.46-19.72,13.74-40.67,22.5-86.2a671.87,671.87,0,0,0,10.29-176.91c.52-.86,1-1.69,1.57-2.55,1.09-1.73,2.15-3.46,3.24-5.19A13.9,13.9,0,0,0,817,485Z"></path><path d="M729.45,685.49l2,3.45-2.63,3c-1.58,1.8-33.46,37.86-72.6,37.86a61.68,61.68,0,0,1-21.11-3.72,5.63,5.63,0,0,1,3.83-10.59c34.59,12.51,68.55-17.88,78.46-27.91-7.1-10-30.46-36.4-66.36-16.34-48.72,27.2-81.1,30-82.45,30.12a5.56,5.56,0,0,1-6.05-5.18,5.62,5.62,0,0,1,5.15-6.05c.49,0,31.63-2.93,77.86-28.73C698,632.15,729.15,684.93,729.45,685.49Z"></path><path d="M719.87,494.87c.27.67.49,1.39.75,2.18-8.3-1.54-19.57,1.27-33.46,8.33a67.9,67.9,0,0,1,2.29-8.49Z"></path><path d="M711.05,520.45c.26,8.37-2.82,15.36-6.84,15.62s-7.47-6.35-7.74-14.72,2.86-15.4,6.88-15.63S710.82,512.07,711.05,520.45Z" class="cls-6"></path><path d="M705.6,551.88c.22,0,.41,0,.6,0,9.5-.64,16.6-20.25,17.09-35.65a55.33,55.33,0,0,0-2.67-19.15,19.11,19.11,0,0,1,3.8,1.12l1.35.6c5.52,2.41,18.48,8.12,34.67,6.05a53.7,53.7,0,0,0,7.25-1.43c-1.51,9.28-5.53,22.43-16.3,33.17-11.8,11.72-28.4,17.54-45.83,16.79Z" class="cls-7"></path><path d="M723.29,516.2c-.49,15.4-7.59,35-17.09,35.65-.19,0-.38,0-.6,0-2.48,0-5.22-1.12-8-3.71-5.93-5.41-8.64-12.93-9.5-15.74-3.12-10-2.22-20.14-.9-27,13.89-7.06,25.16-9.87,33.46-8.33A55.33,55.33,0,0,1,723.29,516.2Zm-19.94-10.48c-4,.23-7.1,7.25-6.88,15.63s3.72,14.95,7.74,14.72,7.1-7.25,6.84-15.62S707.36,505.5,703.35,505.72Z" class="cls-8"></path><path d="M667.48,867.85q13.46-1.3,25.27-2.11a140.15,140.15,0,0,1-34.89,6.92,13.16,13.16,0,0,1,2-1.88c.22-.15.41-.3.64-.45a11.9,11.9,0,0,1,1.54-.9A15.23,15.23,0,0,1,667.48,867.85Z"></path><path d="M683.74,856.77a144.36,144.36,0,0,0,52-27.87,5.63,5.63,0,1,1,7.21,8.64,156.79,156.79,0,0,1-50.18,28.2q-11.82.79-25.27,2.11a15.23,15.23,0,0,0-5.41,1.58C669.47,865.56,676.72,861.31,683.74,856.77Z"></path><path d="M796.91,884.52a15,15,0,0,0-17.58,12l-.68,3.64c-8.07-4.24-38.16-9.09-108-2.4a14.53,14.53,0,0,0,5.18-1.62,294.32,294.32,0,0,0,41.39-26.18c2.44-1.84,4.85-3.71,7.18-5.63,65.46-1,79.7,12.58,83.83,26.89a24.49,24.49,0,0,1,.79,9.51A15,15,0,0,0,796.91,884.52Z"></path><path d="M667,897.67a11.26,11.26,0,0,0,1.91.15A11.26,11.26,0,0,1,667,897.67Z"></path><path d="M664.7,1177.46h136v11.27a5.63,5.63,0,0,0,5.64,5.64V1200H659.36v-1.88a9.25,9.25,0,0,0,3.72-.79A9.35,9.35,0,0,0,668,1185Z"></path><path d="M668,1185a9.35,9.35,0,0,1-4.88,12.32,9.33,9.33,0,0,1-12.32-4.84l-6.53-15H664.7Z"></path><path d="M653.54,460.91a50.21,50.21,0,0,1,11.65-20.06c22.34-23,68.35-22,119.14,2.11,1.12,4.62,2.06,9.31,2.85,14-48.68-25.13-94.24-28.51-113.88-8.27a38.78,38.78,0,0,0-9,15.59,5.61,5.61,0,0,1-5.37,3.95,5.28,5.28,0,0,1-1.69-.27A5.63,5.63,0,0,1,653.54,460.91Z"></path><path d="M665.49,897.41a7,7,0,0,0,1.27.22A7,7,0,0,1,665.49,897.41Z"></path><path d="M665.49,897.41a4.79,4.79,0,0,1-.72-.19A3.79,3.79,0,0,0,665.49,897.41Z"></path><path d="M663.16,896.69a8,8,0,0,0,1.05.34A6.46,6.46,0,0,1,663.16,896.69Z"></path><path d="M654.07,884.75a5.62,5.62,0,0,1,8.3,7.59l-2.26,2.59c-.07,0-.15-.08-.22-.11s-.34-.27-.49-.42a7,7,0,0,1-1.09-1,6.72,6.72,0,0,1-.52-.57,10.49,10.49,0,0,1-1.06-1.27,20.53,20.53,0,0,1-1.12-1.84,12,12,0,0,1-1.13-2.78c-.11-.42-.22-.87-.3-1.32a5.49,5.49,0,0,1-.15-.86Z"></path><path d="M661,895.57c-.3-.19-.64-.42-.94-.6,0,0,0,0,0,0A8,8,0,0,0,661,895.57Z"></path><path d="M660.53,870.33c-.23.15-.42.3-.64.45C660.08,870.63,660.3,870.48,660.53,870.33Z"></path><path d="M660.11,894.93s0,0,0,0a.59.59,0,0,0-.19-.15C660,894.85,660,894.93,660.11,894.93Z"></path><path d="M658.31,893.43a7,7,0,0,0,1.09,1C659,894.1,658.65,893.76,658.31,893.43Z"></path><path d="M656.73,891.59a10.49,10.49,0,0,0,1.06,1.27A16.2,16.2,0,0,1,656.73,891.59Z"></path><path d="M770.24,402c-30.39-66.56-84.89-100.33-115.35-114.72l.34-4.09a6.67,6.67,0,0,0,1.47-.15,6.2,6.2,0,0,0,4.65-5.15c32.16,15.48,87.78,50.79,119.11,119.45a233.77,233.77,0,0,1,17.24,54.39,5.78,5.78,0,0,0-2.82-3.5c-3.53-1.87-7.06-3.64-10.55-5.29A224.87,224.87,0,0,0,770.24,402Z"></path><path d="M657.86,872.66a3,3,0,0,0-.56.63,4.59,4.59,0,0,1,.52-.63S657.86,872.66,657.86,872.66Z"></path><path d="M655.61,889.75a20.53,20.53,0,0,0,1.12,1.84A20.53,20.53,0,0,1,655.61,889.75Z"></path><path d="M655.08,876.9c.26-.6.56-1.16.87-1.73A14.73,14.73,0,0,0,655.08,876.9Z"></path><path d="M655.08,876.9a11.07,11.07,0,0,0-.52,1.5C654.71,877.88,654.89,877.39,655.08,876.9Z"></path><path d="M654.18,885.65c.08.45.19.9.3,1.32C654.37,886.52,654.26,886.06,654.18,885.65Z"></path><path d="M654.48,878.63a3.29,3.29,0,0,0-.15.6A3.29,3.29,0,0,1,654.48,878.63Z"></path><path d="M654.33,879.23a10.22,10.22,0,0,0-.3,1.54A7.12,7.12,0,0,1,654.33,879.23Z"></path><path d="M662,884.41a5.64,5.64,0,0,0-8,.34l0,0a2.8,2.8,0,0,1-.08-.57c0-.48-.07-1-.07-1.46a12,12,0,0,1,.15-2,10.22,10.22,0,0,1,.3-1.54,3.29,3.29,0,0,1,.15-.6.53.53,0,0,1,.08-.23,11.07,11.07,0,0,1,.52-1.5,14.73,14.73,0,0,1,.87-1.73,14.5,14.5,0,0,1,1.35-1.88,3,3,0,0,1,.56-.63,140.15,140.15,0,0,0,34.89-6.92c11.72-.82,22.24-1.27,31.67-1.46-2.33,1.92-4.74,3.79-7.18,5.63a294.32,294.32,0,0,1-41.39,26.18,14.53,14.53,0,0,1-5.18,1.62c-.11,0-.19,0-.3,0-.49,0-1,.07-1.47.07a11.26,11.26,0,0,1-1.91-.15.47.47,0,0,1-.23,0,7,7,0,0,1-1.27-.22,3.79,3.79,0,0,1-.72-.19,3.08,3.08,0,0,1-.56-.19,8,8,0,0,1-1.05-.34,18,18,0,0,1-2.14-1.12,8,8,0,0,1-.91-.64l2.26-2.59A5.6,5.6,0,0,0,662,884.41Z"></path><path d="M654,880.77a12,12,0,0,0-.15,2A12,12,0,0,1,654,880.77Z"></path><path d="M652.26,528c1.21,9.91,7.78,42.63,42,61.45A5.62,5.62,0,0,1,691.48,600a5.94,5.94,0,0,1-2.71-.68c-45.44-25.05-48-71.74-48-73.69a5.47,5.47,0,0,0,1.17,3.19,5.63,5.63,0,0,0,7.89,1C650.61,529.2,651.44,528.56,652.26,528Z"></path><path d="M648.17,275.7c2.86.07,5.71.22,8.56.41l1.06.08.93.45c.87.41,1.73.82,2.63,1.27a6.2,6.2,0,0,1-4.65,5.15,6.67,6.67,0,0,1-1.47.15,6.14,6.14,0,0,1-5.78-4.06C649,278,648.58,276.86,648.17,275.7Z"></path><path d="M652,525.14c0,.26.08,1.28.3,2.86-.82.56-1.65,1.2-2.47,1.84a5.63,5.63,0,0,1-7.89-1,5.47,5.47,0,0,1-1.17-3.19,4.55,4.55,0,0,1,.19-1.58,3.93,3.93,0,0,1,.38-1.09.15.15,0,0,1,0-.11,3.44,3.44,0,0,1,.61-.94s0-.07.07-.11a3.94,3.94,0,0,1,.79-.79c.07-.08.19-.15.26-.23a6.12,6.12,0,0,1,3-1A5.61,5.61,0,0,1,652,525.14Z"></path><path d="M643.4,1128.37l4.88,11.27H635.63a5.66,5.66,0,0,1-5.19-3.46A5.24,5.24,0,0,1,630,1134a5.63,5.63,0,0,1,5.64-5.64Z"></path><path d="M648.17,275.7a199.44,199.44,0,0,0-100.32,23.92c-7.63-34-13.37-66.29,6.23-97.5,7.7-12.29,15.78-18.93,24-19.72C603,180,631,230.36,648.17,275.7Z" class="cls-9"></path><path d="M730.28,488.44c5.07,2.22,15.62,6.88,28.73,5.19A45.23,45.23,0,0,0,771.82,490l8.15-3.64-.23,8.94c-.26,8.94-2.74,31.62-20.43,49.2-13.26,13.22-31.59,20.17-50.86,20.17A83.84,83.84,0,0,1,678.18,559a5.64,5.64,0,0,1,4.09-10.52,72.77,72.77,0,0,0,23.29,4.92c17.43.75,34-5.07,45.83-16.79,10.77-10.74,14.79-23.89,16.3-33.17a53.7,53.7,0,0,1-7.25,1.43c-16.19,2.07-29.15-3.64-34.67-6.05l-1.35-.6a19.11,19.11,0,0,0-3.8-1.12c-.26-.79-.48-1.51-.75-2.18l-30.42,2a67.9,67.9,0,0,0-2.29,8.49c-10.26,5.22-21.94,12.77-34.9,22.62-.22-1.58-.3-2.6-.3-2.86a5.61,5.61,0,0,0-5.86-5.41,6.12,6.12,0,0,0-3,1c39-29.89,67.05-40.71,85.64-33Z"></path><path d="M635.14,934.18c2.21-3.83,4.17-7.25,5.93-10.4,5.56-9.88,9.58-17,15.7-24.79,1.05-1.36,2.18-2.71,3.31-4,.3.18.64.41.94.6a18,18,0,0,0,2.14,1.12,6.46,6.46,0,0,0,1.05.34,3.08,3.08,0,0,0,.56.19,4.79,4.79,0,0,0,.72.19,7,7,0,0,0,1.27.22.47.47,0,0,0,.23,0,11.26,11.26,0,0,0,1.91.15c.49,0,1,0,1.47-.07.11,0,.19,0,.3,0,69.82-6.69,99.91-1.84,108,2.4l-2.55,13.3c-27.16,27.72-99.91,24.41-122.75,22.57-1.87-.15-3-.15-3.15-.15l-5.82.38-.68,1.58Z" class="cls-10"></path><path d="M627,1137.69l17.24,39.77H441l29.86-68.88L492.37,1059l-14.2-33.84c11.39,4.2,23.93,7.32,37.68,7.32a91.91,91.91,0,0,0,14.38-1.16c.72-.12,1.58-.23,2.63-.3a86.75,86.75,0,0,0,15.85-3c29.6-8.64,46.73-33.13,55.93-46.28,14.72-21.07,23.85-36.06,30.5-47.55l8.56,3.61L592.81,1059Z" class="cls-10"></path><path d="M648.36,873a142.32,142.32,0,0,1-49.13-8.82,5.64,5.64,0,0,1,3.87-10.6,131.43,131.43,0,0,0,48.79,8.12,128.66,128.66,0,0,0,31.85-4.92c-7,4.54-14.27,8.79-21.67,12.66a11.9,11.9,0,0,0-1.54.9c-.23.15-.45.3-.64.45a13.16,13.16,0,0,0-2,1.88s0,0,0,0c-1.84.15-3.72.26-5.63.3C650.91,873,649.64,873,648.36,873Z"></path><path d="M642.8,521a3.94,3.94,0,0,0-.79.79A3.94,3.94,0,0,1,642.8,521Z"></path><path d="M641.94,521.91a3.44,3.44,0,0,0-.61.94A3.44,3.44,0,0,1,641.94,521.91Z"></path><path d="M641.3,523a3.93,3.93,0,0,0-.38,1.09A3.93,3.93,0,0,1,641.3,523Z"></path><path d="M640.17,186.57a.58.58,0,0,1,.11.37c-.86.49-1.72,1-2.59,1.5A14.4,14.4,0,0,0,640.17,186.57Z"></path><path d="M635.81,189.38a11.78,11.78,0,0,0,1.88-.94A11.78,11.78,0,0,1,635.81,189.38Z"></path><path d="M629.69,190.58c-.94-2.51-1.84-5-2.82-7.55a5.63,5.63,0,1,1,10.52-4c.94,2.51,1.88,5,2.78,7.55a14.4,14.4,0,0,1-2.48,1.87,11.78,11.78,0,0,1-1.88.94,4.63,4.63,0,0,1-1.2.42A13.82,13.82,0,0,1,629.69,190.58Z"></path><path d="M634.61,189.8a4.63,4.63,0,0,0,1.2-.42A5.21,5.21,0,0,1,634.61,189.8Z"></path><path d="M644.23,1177.46,627,1137.69l3.45-1.51a5.66,5.66,0,0,0,5.19,3.46h12.65l16.42,37.82Z"></path><path d="M627,1137.69,592.81,1059,643.7,937.79l.68-1.58,5.82-.38c.19,0,1.28,0,3.15.15,22.84,1.84,95.59,5.15,122.75-22.57l-5,26.48c-32.64,17-81.32,17.43-114.22,15.17l-43.61,103.79,30.16,69.52h-7.77A5.63,5.63,0,0,0,630,1134a5.24,5.24,0,0,0,.45,2.17Z"></path><path d="M637.39,179a5.63,5.63,0,1,0-10.52,4c1,2.52,1.88,5,2.82,7.55a14.79,14.79,0,0,1-7-1.87,15.41,15.41,0,0,1-5.6-5.41,15,15,0,0,1,5.18-20.62c2.52-1.51,5-2.93,7.52-4.29,2.74,1.43,5.25,2.78,7.51,4.06a15,15,0,0,1,5.82,20.43,14.29,14.29,0,0,1-2.93,3.69C639.27,184,638.33,181.53,637.39,179Z"></path><path d="M617.07,183.3a15.41,15.41,0,0,0,5.6,5.41c-6.2-3.46-14.46-7.7-24.45-12.06,0,0,0,0-.08,0a38.39,38.39,0,0,0-12.32-5c-39.06-14.87-97.09-27.19-158.76-6.57C289.77,211,264.68,381.73,263.71,389a283.82,283.82,0,0,0,2.51,91.8,5.62,5.62,0,0,0-.78,11.12,15,15,0,0,0,1,11.76l3.79,7.13c-5.18.3-10.44.49-15.66.64l-12.21.3-2.78-11.91a314.88,314.88,0,0,1-5.67-115c2.78-20.06,31.44-197.35,183.6-248.24,91.12-30.5,174.27,2.14,212.25,21.78-2.52,1.36-5,2.78-7.52,4.29A15,15,0,0,0,617.07,183.3Z"></path><path d="M622.67,188.71a14.79,14.79,0,0,0,7,1.87c4.28,11.95,8,24.16,11.16,36.4.67,2.59,1.27,5.18,1.87,7.81-11.53-23.28-26.89-47.47-44.5-58.14C608.21,181,616.47,185.25,622.67,188.71Z" class="cls-5"></path><path d="M598.14,176.61c-3.87-1.65-8-3.34-12.32-5A38.39,38.39,0,0,1,598.14,176.61Z"></path><path d="M577,171.17c-17.91,1.76-28.88,19.23-32.45,24.94-23.25,37-14.65,75.16-6.34,112.08.07.26.11.52.18.79a6,6,0,0,0,.15.71c9.47,42,18.67,85.34-17,131.09-1.35.11-2.7.26-4.09.41V411.11L509,415.8c-9.42,5.3-19.08,10.33-28.77,14.95a498.24,498.24,0,0,1-100,35.27,547,547,0,0,1-101.56,14.27,13.18,13.18,0,0,0-1.54,0l-3.53.23h-.15l-7,.22a.34.34,0,0,0-.19,0,283.82,283.82,0,0,1-2.51-91.8c1-7.25,26.06-178,163.35-223.9,61.67-20.62,119.7-8.3,158.76,6.57A29,29,0,0,0,577,171.17Z" class="cls-5"></path><path d="M654.89,287.3A188.29,188.29,0,0,0,550.4,311.08c-.41-1.8-.79-3.61-1.2-5.37l-1.35-6.09A199.44,199.44,0,0,1,648.17,275.7c.41,1.16.86,2.29,1.28,3.45a6.14,6.14,0,0,0,5.78,4.06Z"></path><path d="M539.13,311.12a5.64,5.64,0,0,0,7.7,2c1.17-.71,2.37-1.39,3.57-2,8.87,39.82,17,83.87-15,129.81a71.41,71.41,0,0,0-13.9-.11c35.72-45.75,26.52-89.06,17-131.09A6.88,6.88,0,0,0,539.13,311.12Z"></path><path d="M538.38,309a5.66,5.66,0,0,1,2.74-5.6c2.22-1.31,4.44-2.55,6.73-3.76l1.35,6.09c.41,1.76.79,3.57,1.2,5.37-1.2.64-2.4,1.32-3.57,2a5.64,5.64,0,0,1-7.7-2,6.88,6.88,0,0,1-.6-1.43A6,6,0,0,1,538.38,309Z"></path><path d="M661.39,276.3a4.36,4.36,0,0,1,0,1.61c-.9-.45-1.76-.86-2.63-1.27l-.93-.45-1.06-.08c-2.85-.19-5.7-.34-8.56-.41C631,230.36,603,180,578.12,182.4c-8.26.79-16.34,7.43-24,19.72-19.6,31.21-13.86,63.47-6.23,97.5-2.29,1.21-4.51,2.45-6.73,3.76a5.66,5.66,0,0,0-2.74,5.6c-.07-.27-.11-.53-.18-.79-8.31-36.92-16.91-75.09,6.34-112.08,3.57-5.71,14.54-23.18,32.45-24.94a29,29,0,0,1,8.83.48c4.36,1.62,8.45,3.31,12.32,5,0,0,0,0,.08,0,17.61,10.67,33,34.86,44.5,58.14-.6-2.63-1.2-5.22-1.87-7.81-3.12-12.24-6.88-24.45-11.16-36.4a13.82,13.82,0,0,0,4.92-.78,5.21,5.21,0,0,0,1.2-.42,11.78,11.78,0,0,0,1.88-.94c.87-.52,1.73-1,2.59-1.5,4.44,12.21,8.3,24.72,11.5,37.26A402.6,402.6,0,0,1,661.39,276.3Z"></path><path d="M535.38,440.89A49.27,49.27,0,0,1,558.7,449a47.74,47.74,0,0,1,14.35,16.12,5.63,5.63,0,0,1-9.8,5.55,36.9,36.9,0,0,0-11-12.39c-6.69-4.62-15.25-6.76-25.2-6.61C530.12,448.1,532.86,444.5,535.38,440.89Z"></path><path d="M506.12,454.9a84.07,84.07,0,0,1,21-3.19c-3.42,4.13-7.18,8.26-11.35,12.43l-9.61,9.62Z"></path><path d="M641.07,923.78c-1.76,3.15-3.72,6.57-5.93,10.4-6.65,11.49-15.78,26.48-30.5,47.55-9.2,13.15-26.33,37.64-55.93,46.28a86.75,86.75,0,0,1-15.85,3c-1.05.07-1.91.18-2.63.3a91.91,91.91,0,0,1-14.38,1.16c-13.75,0-26.29-3.12-37.68-7.32l-6.12-14.58c16,7,35.08,13.07,56.38,9.62.86-.15,2-.27,3.23-.42a74,74,0,0,0,13.9-2.51c25.8-7.55,40.82-29.11,49.84-42a621,621,0,0,0,35.87-57c5.56-9.92,10-17.73,16.64-26.22,2-2.48,4-4.88,6.12-7.21a5.49,5.49,0,0,0,.15.86c.08.41.19.87.3,1.32a12,12,0,0,0,1.13,2.78,20.53,20.53,0,0,0,1.12,1.84,16.2,16.2,0,0,0,1.06,1.27,6.72,6.72,0,0,0,.52.57c.34.33.72.67,1.09,1,.15.15.34.27.49.42a.59.59,0,0,1,.19.15c-1.13,1.31-2.26,2.66-3.31,4C650.65,906.76,646.63,913.9,641.07,923.78Z"></path><path d="M517.39,441.19c1.39-.15,2.74-.3,4.09-.41-1.31,1.65-2.67,3.3-4.09,5Z"></path><path d="M517.39,445.77c1.42-1.69,2.78-3.34,4.09-5a71.41,71.41,0,0,1,13.9.11c-2.52,3.61-5.26,7.21-8.3,10.82a84.07,84.07,0,0,0-21,3.19V443.3q5.81-1.37,11.27-2.11Z"></path><path d="M505.26,527.51a23.67,23.67,0,0,1,2.21-11.5l.79-.45,1.2-.67a34.17,34.17,0,0,1,4.85-2.29c3.11,1.65,5.48,7.24,5.67,14,.22,8.3-2.86,15.22-7,15.44S505.48,535.81,505.26,527.51Z" class="cls-6"></path><path d="M512.2,559.85c13.94,1.5,22.88-30.24,17.09-50.75,12.55-1.24,28.14.64,46.54,5.6a5.64,5.64,0,1,0,2.93-10.89c-32.71-8.83-57.88-8.38-74.89,1.27l-.87.53-.41.22a73.18,73.18,0,0,1-28.43,10.33,67.25,67.25,0,0,1-17.36,0l-8.11-1,1.92,7.92c.93,3.87,10,38,43.53,50.26a66.35,66.35,0,0,0,23,4.06c21,0,42-9.73,56.46-27.35a5.63,5.63,0,0,0-8.72-7.13c-13.56,16.52-33.76,24.86-53.29,23ZM780,486.38,771.82,490A45.23,45.23,0,0,1,759,493.63c-13.11,1.69-23.66-3-28.73-5.19l-1.58-.67c-18.59-7.7-46.61,3.12-85.64,33-.07.08-.19.15-.26.23a3.94,3.94,0,0,0-.79.79s-.07.07-.07.11a3.44,3.44,0,0,0-.61.94.15.15,0,0,0,0,.11,3.93,3.93,0,0,0-.38,1.09,4.55,4.55,0,0,0-.19,1.58c.08,2,2.6,48.64,48,73.69a5.94,5.94,0,0,0,2.71.68,5.62,5.62,0,0,0,2.74-10.55c-34.18-18.82-40.75-51.54-42-61.45,13-9.85,24.64-17.4,34.9-22.62-1.32,6.91-2.22,17,.9,27,.86,2.81,3.57,10.33,9.5,15.74,2.82,2.59,5.56,3.71,8,3.71l0,1.47a72.77,72.77,0,0,1-23.29-4.92A5.64,5.64,0,0,0,678.18,559a83.84,83.84,0,0,0,30.27,5.74c19.27,0,37.6-7,50.86-20.17,17.69-17.58,20.17-40.26,20.43-49.2ZM656,875.17c-.31.57-.61,1.13-.87,1.73s-.37,1-.52,1.5a.53.53,0,0,0-.08.23,3.29,3.29,0,0,0-.15.6,7.12,7.12,0,0,0-.3,1.54,12,12,0,0,0-.15,2c0,.49,0,1,.07,1.46a2.8,2.8,0,0,0,.08.57c-2.14,2.33-4.17,4.73-6.12,7.21-6.65,8.49-11.08,16.3-16.64,26.22a621,621,0,0,1-35.87,57c-9,12.85-24,34.41-49.84,42a74,74,0,0,1-13.9,2.51c-1.28.15-2.37.27-3.23.42-21.3,3.45-40.34-2.63-56.38-9.62L440.8,936.21l-5.78-.38c-.23,0-1.32,0-3.16.15-2.78.23-6.34.45-10.44.68L409.82,895a15.05,15.05,0,0,0,5.78-10.48,14.87,14.87,0,0,0-1.62-8.34,10.41,10.41,0,0,0-.37-1.88L357.27,671.14H320.42l-30-91.27,22.31-30.58L336.35,590l51.38-112.83a3.67,3.67,0,0,0,.41-1.43,510.52,510.52,0,0,0,96.91-34.78c7.06-3.38,14.12-6.95,21.07-10.71V443.3C481,449.38,451.77,465,422.47,489.23a5.65,5.65,0,0,0,7.18,8.72c26.78-22.13,53.63-36.93,76.47-43.05v18.86l9.61-9.62c4.17-4.17,7.93-8.3,11.35-12.43,9.95-.15,18.51,2,25.2,6.61a36.9,36.9,0,0,1,11,12.39,5.63,5.63,0,0,0,9.8-5.55A47.74,47.74,0,0,0,558.7,449a49.27,49.27,0,0,0-23.32-8.15c32-45.94,23.89-90,15-129.81A188.29,188.29,0,0,1,654.89,287.3c30.46,14.39,85,48.16,115.35,114.72A224.87,224.87,0,0,1,784.33,443c-50.79-24.08-96.8-25.13-119.14-2.11a50.21,50.21,0,0,0-11.65,20.06,5.63,5.63,0,0,0,3.68,7.06,5.28,5.28,0,0,0,1.69.27,5.61,5.61,0,0,0,5.37-3.95,38.78,38.78,0,0,1,9-15.59c19.64-20.24,65.2-16.86,113.88,8.27a231.14,231.14,0,0,1,3.42,44.28l-.34,21.52,10.85-18.59c2.71-4.62,5.45-9.24,8.27-13.82a671.87,671.87,0,0,1-10.29,176.91c-8.76,45.53-13,66.48-22.5,86.2-7.7,16-30.65,57.21-77.41,92.48-5,3.76-10.18,7.4-15.44,10.82a128.66,128.66,0,0,1-31.85,4.92,131.43,131.43,0,0,1-48.79-8.12,5.64,5.64,0,0,0-3.87,10.6A142.32,142.32,0,0,0,648.36,873c1.28,0,2.55,0,3.83,0,1.91,0,3.79-.15,5.63-.3a4.59,4.59,0,0,0-.52.63A14.5,14.5,0,0,0,656,875.17Zm75.49-186.23-2-3.45c-.3-.56-31.48-53.34-83.91-24-46.23,25.8-77.37,28.7-77.86,28.73a5.62,5.62,0,0,0-5.15,6.05,5.56,5.56,0,0,0,6.05,5.18c1.35-.11,33.73-2.92,82.45-30.12,35.9-20.06,59.26,6.39,66.36,16.34-9.91,10-43.87,40.42-78.46,27.91a5.63,5.63,0,0,0-3.83,10.59,61.68,61.68,0,0,0,21.11,3.72c39.14,0,71-36.06,72.6-37.86Z" class="cls-11"></path><path d="M514.31,512.6a3.9,3.9,0,0,0-2.14-.53c-1.84.11-3.46,1.58-4.7,3.94a87.87,87.87,0,0,1-12.62,6.28A44.45,44.45,0,0,1,497,514a11.77,11.77,0,0,1,6.84-6.95c9.65-4.1,24.9.26,24.9.26l.56,1.8A52.11,52.11,0,0,0,514.31,512.6Z"></path><path d="M507.47,516c1.24-2.36,2.86-3.83,4.7-3.94a3.9,3.9,0,0,1,2.14.53,34.17,34.17,0,0,0-4.85,2.29l-1.2.67Z" class="cls-6"></path><path d="M506.12,443.3v11.6C483.28,461,456.43,475.82,429.65,498a5.65,5.65,0,1,1-7.18-8.72C451.77,465,481,449.38,506.12,443.3Z"></path><path d="M494.85,522.29A87.87,87.87,0,0,0,507.47,516a23.67,23.67,0,0,0-2.21,11.5c.22,8.3,3.71,14.83,7.77,14.57s7.17-7.14,7-15.44c-.19-6.8-2.56-12.39-5.67-14a52.11,52.11,0,0,1,15-3.5c5.79,20.51-3.15,52.25-17.09,50.75A13.39,13.39,0,0,1,505,556.2C493.27,545.76,493.31,531.26,494.85,522.29Z" class="cls-8"></path><path d="M528.73,507.3s-15.25-4.36-24.9-.26l-.83-1.43.87-.53c17-9.65,42.18-10.1,74.89-1.27a5.64,5.64,0,1,1-2.93,10.89c-18.4-5-34-6.84-46.54-5.6Z"></path><path d="M498,562.74C478,555.38,468.22,538.06,464.13,528a77.89,77.89,0,0,0,11.45-.64,78.77,78.77,0,0,0,19.27-5.07c-1.54,9-1.58,23.47,10.18,33.91a13.39,13.39,0,0,0,7.17,3.65l-.63,6A57.46,57.46,0,0,1,498,562.74Z" class="cls-11"></path><path d="M456.8,516.16a67.25,67.25,0,0,0,17.36,0,73.18,73.18,0,0,0,28.43-10.33l.41-.22.83,1.43A11.77,11.77,0,0,0,497,514a44.45,44.45,0,0,0-2.14,8.3,78.77,78.77,0,0,1-19.27,5.07,77.89,77.89,0,0,1-11.45.64c4.09,10.06,13.82,27.38,33.88,34.74a57.46,57.46,0,0,0,13.56,3.12c19.53,1.91,39.73-6.43,53.29-23a5.63,5.63,0,0,1,8.72,7.13c-14.46,17.62-35.42,27.35-56.46,27.35a66.35,66.35,0,0,1-23-4.06c-33.51-12.28-42.6-46.39-43.53-50.26l-1.92-7.92Z"></path><path d="M455.3,1019.18,472,1058.85l-17.54,40.41h-213v-55.89l46.42-15a48.4,48.4,0,0,0,32.64-55.06l-6.35-33.43c29.45,15.32,71.93,17.17,104.16,15.74,3.49-.15,6.87-.34,10.1-.57Z" class="cls-3"></path><path d="M462.21,1110.53a5.59,5.59,0,0,0,5.18-3.46l3.46,1.51L441,1177.46H420.48l29.07-66.93Z"></path><path d="M461.39,1012a5.62,5.62,0,0,1,7.43-2.86c1.05.49,2.14.94,3.23,1.39l6.12,14.58c-4.88-1.73-9.54-3.69-14-5.68a5.86,5.86,0,0,1-2.81-2.81A5.64,5.64,0,0,1,461.39,1012Z"></path><path d="M467.85,1104.9a5.63,5.63,0,0,0-5.64-5.64h-7.77L472,1058.85l-16.68-39.67,6.09-2.55a5.86,5.86,0,0,0,2.81,2.81c4.43,2,9.09,3.95,14,5.68l14.2,33.84-21.52,49.62-3.46-1.51A5.09,5.09,0,0,0,467.85,1104.9Z"></path><path d="M462.21,1099.26a5.63,5.63,0,0,1,5.64,5.64,5.09,5.09,0,0,1-.46,2.17,5.59,5.59,0,0,1-5.18,3.46H449.55l4.89-11.27Z"></path><polygon points="454.44 1099.26 449.55 1110.53 241.4 1110.53 241.4 1099.26 454.44 1099.26"></polygon><polygon points="449.55 1110.53 420.48 1177.46 241.4 1177.46 241.4 1110.53 449.55 1110.53" class="cls-1"></polygon><path d="M441,1177.46l-6.54,15a9.39,9.39,0,0,1-8.63,5.63,9.25,9.25,0,0,1-3.72-.79,9.36,9.36,0,0,1-4.89-12.32l3.27-7.55Z"></path><path d="M659.36,1200H425.82v-1.88a9.39,9.39,0,0,0,8.63-5.63l6.54-15H644.23l6.53,15a9.31,9.31,0,0,0,8.6,5.63Z"></path><path d="M412.63,947.1l-2.78-10c4.21-.07,8.08-.22,11.57-.41l2.07,7.4a5.64,5.64,0,0,1-3.91,7,5.34,5.34,0,0,1-1.5.22A5.7,5.7,0,0,1,412.63,947.1Z"></path><path d="M468.82,1009.15a5.65,5.65,0,0,0-7.43,7.48l-6.09,2.55-26.93-64.12c-3.23.23-6.61.42-10.1.57l-.19-4.4a5.34,5.34,0,0,0,1.5-.22,5.64,5.64,0,0,0,3.91-7l-2.07-7.4c4.1-.23,7.66-.45,10.44-.68,1.84-.15,2.93-.15,3.16-.15l5.78.38,31.25,74.33C471,1010.09,469.87,1009.64,468.82,1009.15Z"></path><path d="M415.6,884.49A15.05,15.05,0,0,1,409.82,895l-1.39-4.92a14.93,14.93,0,0,0,5.55-13.9A14.87,14.87,0,0,1,415.6,884.49Z"></path><path d="M412.63,947.1a5.7,5.7,0,0,0,5.45,4.13l.19,4.4c-32.23,1.43-74.71-.42-104.16-15.74l-5-26.48c21,21.45,69.41,24.3,100.77,23.66Z"></path><path d="M399,897.93l10.89,39.14c-31.36.64-79.74-2.21-100.77-23.66l-2.48-13.07C313.81,897,339.13,892.19,399,897.93Z" class="cls-10"></path><path d="M399.22,898a14.79,14.79,0,0,0,10.6-3l11.6,41.69c-3.49.19-7.36.34-11.57.41L399,897.93A.61.61,0,0,0,399.22,898Z"></path><path d="M403.13,892.75a14.45,14.45,0,0,1-4,.56c-.49,0-1,0-1.46-.07l-.87-3.16a5.62,5.62,0,1,1,10.82-3l.83,3A14.71,14.71,0,0,1,403.13,892.75Z"></path><path d="M409.82,895a14.79,14.79,0,0,1-10.6,3,.61.61,0,0,1-.26,0l-1.31-4.69c.48,0,1,.07,1.46.07a14.45,14.45,0,0,0,4-.56,14.71,14.71,0,0,0,5.3-2.7Z"></path><path d="M397.65,893.24a15,15,0,0,1-13-10.93l-4.43-16q10.25.68,21.9,1.8a11.71,11.71,0,0,1,6.31,22l-.83-3a5.62,5.62,0,1,0-10.82,3Z"></path><path d="M388.14,475.71c-4.5,1.13-9.05,2.18-13.59,3.19l2.93-6.42A5.86,5.86,0,0,1,381,469.4a5.44,5.44,0,0,1,3.91.3A5.5,5.5,0,0,1,388.14,475.71Z"></path><path d="M385,469.7a5.44,5.44,0,0,0-3.91-.3l-.82-3.38a498.24,498.24,0,0,0,100-35.27c9.69-4.62,19.35-9.65,28.77-14.95l8.42-4.69v30.08q-5.47.74-11.27,2.11V430.22c-6.95,3.76-14,7.33-21.07,10.71a510.52,510.52,0,0,1-96.91,34.78A5.5,5.5,0,0,0,385,469.7Z"></path><path d="M374.55,478.9l-39.4,86.58L315.62,532l-22-41.32A553.5,553.5,0,0,0,374.55,478.9Z" class="cls-12"></path><path d="M335.15,565.48l39.4-86.58c4.54-1,9.09-2.06,13.59-3.19a3.67,3.67,0,0,1-.41,1.43L336.35,590l-23.66-40.68,7-9.65L315.62,532Z"></path><path d="M306.15,526.91a5.64,5.64,0,0,1,7.7,2l1.77,3.05,4.09,7.66-7,9.65-8.57-14.68A5.61,5.61,0,0,1,306.15,526.91Z"></path><path d="M306.6,900.34l2.48,13.07a35.46,35.46,0,0,1-4.28-5.18,15.48,15.48,0,0,0,1.65-7.82S306.56,900.38,306.6,900.34Z"></path><path d="M295.48,915.85a15.16,15.16,0,0,1-4.09.56,14.74,14.74,0,0,1-4.09-.56,49.08,49.08,0,0,1-3.72-7,9.38,9.38,0,1,1,17.27-7.32,41,41,0,0,0,3.31,5.78c.19.3.41.61.64.91A14.89,14.89,0,0,1,295.48,915.85Z"></path><path d="M293.61,490.66l-1.17.11a14.5,14.5,0,0,0-3.75-6.2A14.2,14.2,0,0,1,293,489.5Z"></path><path d="M292.44,490.77a13.19,13.19,0,0,1,.68,3.46,15,15,0,0,1-13.94,16c-3,.18-5.93.37-8.94.52l-3.79-7.13a15,15,0,0,1-1-11.76,6.07,6.07,0,0,0,1.12.11h.15C275.35,491.79,283.91,491.37,292.44,490.77Z"></path><path d="M293.61,490.66l22,41.32-1.77-3.05a5.63,5.63,0,0,0-9.73,5.68l8.57,14.68-22.31,30.58,30,91.27h36.85l56.34,203.13a10.41,10.41,0,0,1,.37,1.88,15,15,0,0,0-11.86-8.08q-11.67-1.12-21.9-1.8L334.43,701.19H298.68L257,574.61l27.31-37.45-14.09-26.37c3-.15,6-.34,8.94-.52a15,15,0,0,0,13.94-16,13.19,13.19,0,0,0-.68-3.46Z"></path><path d="M291.39,916.41a15.16,15.16,0,0,0,4.09-.56,14.89,14.89,0,0,0,9.32-7.62,35.46,35.46,0,0,0,4.28,5.18l5,26.48c-10.66-5.52-19.6-12.85-25.76-22.42-.3-.49-.68-1.06-1.05-1.62A14.74,14.74,0,0,0,291.39,916.41Z"></path><path d="M293,489.5a14.2,14.2,0,0,0-4.28-4.93,14.59,14.59,0,0,0-10-4.28A547,547,0,0,0,380.22,466l.82,3.38a5.86,5.86,0,0,0-3.56,3.08l-2.93,6.42a553.5,553.5,0,0,1-80.94,11.76Z"></path><path d="M300.85,901.54a9.38,9.38,0,1,0-17.27,7.32,49.08,49.08,0,0,0,3.72,7,14.75,14.75,0,0,1-10.18-10.14,5.15,5.15,0,0,1-.19-.75l-.08-.23-.48-2.66a15,15,0,1,1,29.48-5.6l.75,3.87s-.11,0-.15.07a15.48,15.48,0,0,1-1.65,7.82c-.23-.3-.45-.61-.64-.91A41,41,0,0,1,300.85,901.54Z"></path><path d="M287.3,915.85c.37.56.75,1.13,1.05,1.62,6.16,9.57,15.1,16.9,25.76,22.42l6.35,33.43a48.4,48.4,0,0,1-32.64,55.06l-46.42,15v-13.93a5.66,5.66,0,0,0-5.64-5.64,5.15,5.15,0,0,0-2.18.45l-2.89-9,47.89-15.47A18.39,18.39,0,0,0,291,979l-14.05-74a5.15,5.15,0,0,0,.19.75A14.75,14.75,0,0,0,287.3,915.85Z"></path><path d="M278.66,480.29l-5.07.23,3.53-.23A13.18,13.18,0,0,1,278.66,480.29Z"></path><path d="M384.65,882.31a15,15,0,0,0,13,10.93l1.31,4.69c-59.83-5.74-85.15-.93-92.36,2.41l-.75-3.87a15,15,0,1,0-29.48,5.6l.48,2.66a25.26,25.26,0,0,1,.15-13.67c4.32-14.69,20.36-30.27,103.22-24.79Z"></path><path d="M273.44,480.52c-2.37.15-4.77.3-7.18.41,0,0,0-.11,0-.15a.34.34,0,0,1,.19,0Z"></path><path d="M260.93,486.53a5.63,5.63,0,0,1,5.29-5.75s0,.11,0,.15c2.41-.11,4.81-.26,7.18-.41h.15l5.07-.23a14.59,14.59,0,0,1,10,4.28,15,15,0,0,0-23.25,7.33A5.59,5.59,0,0,1,260.93,486.53Z"></path><path d="M292.44,490.77c-8.53.6-17.09,1-25.73,1.24h-.15a6.07,6.07,0,0,1-1.12-.11,15,15,0,0,1,23.25-7.33A14.5,14.5,0,0,1,292.44,490.77Z"></path><path d="M241.4,1177.46v2.86a5.64,5.64,0,0,1-11.27,0v-2.86Z"></path><path d="M241.4,1110.53v66.93H230.13V1104.9a5.65,5.65,0,0,0,5.63,5.63Z"></path><path d="M241.4,1099.26v11.27h-5.64a5.64,5.64,0,0,1,0-11.27Z"></path><path d="M241.4,1043.37v55.89h-5.64a5.63,5.63,0,0,0-5.63,5.64V1047Z"></path><path d="M241.4,1029.44v13.93L230.13,1047v-17.57a5.62,5.62,0,0,1,3.45-5.19,5.15,5.15,0,0,1,2.18-.45A5.66,5.66,0,0,1,241.4,1029.44Z"></path><polygon points="230.13 1104.89 230.13 1177.46 103.1 1177.46 103.1 1088.07 230.13 1047.01 230.13 1104.89" class="cls-1"></polygon><path d="M201.32,812.45H167.25V801.18h34.07a5.64,5.64,0,0,1,0,11.27Z" class="cls-4"></path><path d="M201.32,159.18H167.25V147.92h34.07a5.63,5.63,0,0,1,0,11.26Z" class="cls-4"></path><path d="M167.25,812.45v37.86a5.63,5.63,0,1,1-11.26,0V812.45Z" class="cls-4"></path><rect height="11.27" width="11.27" y="801.18" x="155.99" class="cls-4"></rect><path d="M167.25,766v35.16H156V766a5.63,5.63,0,1,1,11.26,0Z" class="cls-4"></path><path d="M167.25,159.18v37.87a5.63,5.63,0,0,1-11.26,0V159.18Z" class="cls-4"></path><rect height="11.27" width="11.27" y="147.92" x="155.99" class="cls-4"></rect><path d="M167.25,112.8v35.12H156V112.8a5.63,5.63,0,1,1,11.26,0Z" class="cls-4"></path><path d="M156,801.18v11.27H121.92a5.64,5.64,0,0,1,0-11.27Z" class="cls-4"></path><path d="M156,147.92v11.26H121.92a5.63,5.63,0,0,1,0-11.26Z" class="cls-4"></path><path d="M103.1,1177.46v2.86a5.64,5.64,0,0,1-11.27,0v-2.86Z"></path><polygon points="103.1 1088.07 103.1 1177.46 91.83 1177.46 91.83 1091.71 103.1 1088.07"></polygon><path d="M103.1,1074.1v14l-11.27,3.64V1074.1a5.66,5.66,0,0,1,3.46-5.19,5.15,5.15,0,0,1,2.18-.45A5.65,5.65,0,0,1,103.1,1074.1Z"></path><path d="M92.4,1059.93l138.29-44.66,2.89,9a5.62,5.62,0,0,0-3.45,5.19V1047l-127,41.06v-14a5.65,5.65,0,0,0-5.63-5.64,5.15,5.15,0,0,0-2.18.45Z"></path><path d="M92.4,1059.93l2.89,9a5.66,5.66,0,0,0-3.46,5.19v17.61L22.54,1114.1v-31.63Z"></path><polygon points="91.83 1091.71 91.83 1177.46 22.54 1177.46 22.54 1114.1 91.83 1091.71" class="cls-3"></polygon><path d="M22.54,1082.47v31.63l-1,.3a15.31,15.31,0,0,1-4.62.71,15,15,0,0,1-4.62-29.33Z"></path><path d="M16.94,1115.11a15.31,15.31,0,0,0,4.62-.71l1-.3v63.36H91.83v2.86a5.64,5.64,0,0,0,11.27,0v-2.86h127v2.86a5.64,5.64,0,0,0,11.27,0v-2.86H420.48l-3.27,7.55a9.36,9.36,0,0,0,4.89,12.32,9.25,9.25,0,0,0,3.72.79V1200H0v-99.91H1.92a15,15,0,0,0,15,15Z"></path></g><path d="M603.11,853.58s-210.7-46.2-245.84-182.46l8.34,30.68c4.35,16,7.05,26,7.82,28.79,10.4,37.71,75.88,90.09,130.25,159.82,23.56,30.22,39.67,56.45,72.77,63.89a80,80,0,0,0,33,.17c5.89-10.4,12.43-21,19.2-32.06,10.12-16.5,21.28-33.93,25.43-37.65a14.8,14.8,0,0,1,3.73-12.07,141.14,141.14,0,0,1-58.58-8.53,5.74,5.74,0,0,1-3-2.59,5.85,5.85,0,0,1-.35-4.64Z" class="cls-13"></path><path d="M654.91,287.29S589.44,323.9,590.69,359s-84.59,114.8-84.59,114.8a187.5,187.5,0,0,0,22.15-24,199.6,199.6,0,0,0,12.28-18c20-34.18,16.65-75.48,15.73-87a186.87,186.87,0,0,0-5.87-33.67,164,164,0,0,1,38.84-16.91,174.61,174.61,0,0,1,26.06-5.26A212.68,212.68,0,0,1,654.91,287.29Z" class="cls-13"></path><path d="M506.1,473.76s-87.19,46.87-139.41,49.61l21.47-47.66c16.06-4.42,33.14-9.79,51-16.37a633.48,633.48,0,0,0,66.94-29.1Z" class="cls-13"></path><path d="M422.45,489.25s42.89-37.19,83.65-45.95v11.58s-41.83,11.72-76.47,43.06c0,0-3.64,3.18-7.93-.76C421.7,497.18,418.33,492.66,422.45,489.25Z"></path><path d="M635.09,726.14s-48.7-12.5-66.51-24.73c0,0,39.79-6.38,82.44-30.12,0,0,36.93-24.93,66.39,16.35,0,0-39.66,43.3-78.49,27.9,0,0-6.42-.76-7.22,3.38C631.7,718.92,629.64,723.58,635.09,726.14Z" class="cls-14"></path></g></g></svg>